#N canvas 106 84 1920 997 10;
#X obj 507 68 unpack 0 0;
#X obj 1074 288 / 127;
#X obj 507 34 inlet;
#X obj 591 756 *~;
#X obj 589 834 outlet~;
#X obj 1042 259 sel 0;
#X obj 399 328 phasor~ 1;
#X obj 400 386 +~ 1;
#X obj 399 444 *~ 0.5;
#X floatatom 582 242 5 0 127 0 NoteNumber - -, f 5;
#X obj 399 256 mtof;
#X obj 724 365 phasor~ 1;
#X obj 725 419 +~ 1;
#X obj 726 574 *~ 0.5;
#X obj 724 302 mtof;
#X obj 724 256 +;
#X floatatom 719 201 5 0 0 0 OSC2_Offset - -, f 5;
#X obj 592 529 hsl 128 15 0 1 0 0 empty empty empty -2 -8 0 10 -262144
-1 -1 6350 1;
#X floatatom 591 606 5 0 0 0 - - -, f 5;
#X obj 591 663 -, f 4;
#X msg 591 633 1;
#X msg 582 215 bang;
#X floatatom 591 689 5 0 0 0 - - -, f 5;
#X obj 400 355 *~ 2048;
#X obj 725 392 *~ 2048;
#X obj 515 147 r notenumber @hv_param 0 127 60;
#X obj 582 177 r osc2_offset @hv_param -24 24 0;
#X obj 591 577 line 0 5;
#X obj 589 554 pack 0 300;
#X obj 724 336 +~;
#X obj 768 320 r~ OSC2_PITCH_MOD;
#X obj 399 296 +~;
#X obj 441 279 r~ OSC1_PITCH_MOD;
#X obj 767 419 r osc2_waveshape;
#X obj 442 386 r osc1_waveshape;
#X obj 590 799 *~ 0.5;
#X obj 589 410 r osc12_mix;
#X obj 589 462 + 0;
#X obj 623 445 r oscMixLfo1;
#X obj 589 502 + 0;
#X obj 623 485 r oscMixLfo12;
#X obj 569 354 loadbang;
#X obj 569 380 metro 50;
#X obj 400 413 tabread4~ Sine;
#X obj 725 446 tabread4~ Sine;
#X obj 960 259 acco_adsr;
#X connect 0 0 9 0;
#X connect 0 0 21 0;
#X connect 0 1 45 0;
#X connect 2 0 0 0;
#X connect 3 0 35 0;
#X connect 5 1 1 0;
#X connect 6 0 23 0;
#X connect 7 0 43 0;
#X connect 8 0 3 0;
#X connect 9 0 10 0;
#X connect 9 0 15 0;
#X connect 10 0 31 0;
#X connect 11 0 24 0;
#X connect 12 0 44 0;
#X connect 13 0 3 0;
#X connect 14 0 29 0;
#X connect 15 0 14 0;
#X connect 16 0 15 1;
#X connect 16 0 21 0;
#X connect 17 0 28 0;
#X connect 18 0 19 1;
#X connect 18 0 20 0;
#X connect 19 0 8 1;
#X connect 19 0 22 0;
#X connect 20 0 19 0;
#X connect 21 0 9 0;
#X connect 23 0 7 0;
#X connect 24 0 12 0;
#X connect 25 0 9 0;
#X connect 26 0 21 0;
#X connect 26 0 15 1;
#X connect 27 0 18 0;
#X connect 27 0 13 1;
#X connect 28 0 27 0;
#X connect 29 0 11 0;
#X connect 30 0 29 1;
#X connect 31 0 6 0;
#X connect 32 0 31 1;
#X connect 33 0 44 0;
#X connect 34 0 43 0;
#X connect 35 0 4 0;
#X connect 36 0 37 0;
#X connect 37 0 39 0;
#X connect 38 0 37 1;
#X connect 39 0 17 0;
#X connect 40 0 39 1;
#X connect 41 0 42 0;
#X connect 42 0 37 0;
#X connect 43 0 8 0;
#X connect 44 0 13 0;
#X connect 45 0 3 1;
