#N canvas 867 374 852 548 10;
#X obj 93 52 r r;
#X obj 40 141 pack 0 0;
#X text 43 124 RELEASE;
#X obj 157 52 inlet;
#X obj 157 89 sel 0;
#X msg 157 147 stop;
#X obj 189 119 t b b b;
#X obj 212 204 pack 1 0;
#X obj 313 60 r a;
#X obj 360 60 r d;
#X obj 410 60 r s;
#X obj 313 104 + 1;
#X obj 314 164 delay;
#X obj 314 204 pack 0 0 0;
#X obj 314 234 route 0;
#X obj 153 291 line~;
#X obj 154 333 outlet~;
#X floatatom 257 93 5 0 0 0 - - -, f 5;
#X msg 153 210 0 1;
#X obj 214 174 delay 1;
#X connect 0 0 1 1;
#X connect 1 0 15 0;
#X connect 3 0 4 0;
#X connect 4 0 5 0;
#X connect 4 0 1 0;
#X connect 4 1 6 0;
#X connect 5 0 12 0;
#X connect 6 0 12 0;
#X connect 6 1 19 0;
#X connect 6 2 18 0;
#X connect 7 0 15 0;
#X connect 8 0 11 0;
#X connect 8 0 7 1;
#X connect 8 0 17 0;
#X connect 9 0 13 2;
#X connect 10 0 13 1;
#X connect 11 0 12 1;
#X connect 12 0 13 0;
#X connect 13 0 14 0;
#X connect 14 0 15 0;
#X connect 15 0 16 0;
#X connect 18 0 15 0;
#X connect 19 0 7 0;
