#N canvas 828 422 968 531 10;
#X floatatom 364 31 5 0 0 0 - - -, f 5;
#X floatatom 308 130 5 0 0 0 - - -, f 5;
#X msg 308 74 60000;
#X obj 308 104 /;
#X msg 106 141 1;
#X msg 148 142 0;
#X obj 106 221 bng 15 250 50 0 empty empty empty 17 7 0 10 -262144
-1 -1;
#X floatatom 308 180 5 0 0 0 - - -, f 5;
#X obj 308 154 / 4;
#X obj 308 45 t b b;
#X msg 308 14 100;
#X obj 106 194 metro 150;
#X obj 106 272 s pulse @hv_param;
#X obj 106 -3 r start @hv_event;
#X obj 148 59 r stop @hv_event;
#X floatatom 106 247 5 0 0 0 - - -, f 5;
#X obj 437 204 osc~ 5000;
#X obj 438 328 dac~;
#X msg 497 169 3000;
#X obj 306 236 tgl 15 0 empty empty empty 17 7 0 10 -262144 -1 -1 0
1;
#X text 436 142 DEBUG AUDIO;
#X obj 505 269 tgl 15 0 empty empty empty 17 7 0 10 -262144 -1 -1 0
1;
#X obj 505 232 r test @hv_event;
#X obj 439 251 *~;
#X obj 439 284 *~;
#X obj 364 -18 r bpm @hv_param 40 200 100;
#X connect 0 0 3 1;
#X connect 0 0 9 0;
#X connect 1 0 8 0;
#X connect 2 0 3 0;
#X connect 3 0 1 0;
#X connect 4 0 11 0;
#X connect 5 0 11 0;
#X connect 6 0 15 0;
#X connect 6 0 19 0;
#X connect 7 0 11 1;
#X connect 8 0 7 0;
#X connect 9 0 2 0;
#X connect 10 0 0 0;
#X connect 11 0 6 0;
#X connect 13 0 10 0;
#X connect 13 0 4 0;
#X connect 14 0 5 0;
#X connect 15 0 12 0;
#X connect 16 0 23 0;
#X connect 18 0 16 1;
#X connect 19 0 23 1;
#X connect 21 0 24 1;
#X connect 22 0 21 0;
#X connect 23 0 24 0;
#X connect 24 0 17 0;
#X connect 24 0 17 1;
#X connect 25 0 0 0;
