#N canvas 0 50 1920 997 10;
#X obj 709 -61 table tab108 88199 @hv_table;
#X obj 709 -78 table tab105 88199 @hv_table;
#X obj 709 -95 table tab102 88199 @hv_table;
#X obj 709 -112 table tab099 88199 @hv_table;
#X obj 709 -129 table tab096 88199 @hv_table;
#X obj 709 -146 table tab093 88199 @hv_table;
#X obj 709 -163 table tab090 88199 @hv_table;
#X obj 709 -180 table tab087 88199 @hv_table;
#X obj 709 -197 table tab084 88199 @hv_table;
#X obj 709 -214 table tab081 88199 @hv_table;
#X obj 709 -231 table tab078 88199 @hv_table;
#X obj 709 -248 table tab075 88199 @hv_table;
#X obj 709 -265 table tab072 88199 @hv_table;
#X obj 709 -282 table tab069 88199 @hv_table;
#X obj 509 -61 table tab066 88199 @hv_table;
#X obj 509 -78 table tab063 88199 @hv_table;
#X obj 509 -95 table tab060 88199 @hv_table;
#X obj 509 -112 table tab057 88199 @hv_table;
#X obj 509 -129 table tab054 88199 @hv_table;
#X obj 509 -146 table tab051 88199 @hv_table;
#X obj 509 -163 table tab048 88199 @hv_table;
#X obj 509 -180 table tab045 88199 @hv_table;
#X obj 509 -197 table tab042 88199 @hv_table;
#X obj 509 -214 table tab039 88199 @hv_table;
#X obj 509 -231 table tab036 88199 @hv_table;
#X obj 509 -248 table tab033 88199 @hv_table;
#X obj 509 -265 table tab030 88199 @hv_table;
#X obj 509 -282 table tab027 88199 @hv_table;
#X obj 237 561 AccoSamplerVoice;
#X obj 236 768 *~ 0.5;
#X obj 235 811 dac~;
#X floatatom 294 -257 5 0 0 0 - - -, f 5;
#X floatatom 238 -158 5 0 0 0 - - -, f 5;
#X msg 238 -214 60000;
#X obj 238 -184 /;
#X msg 36 -147 1;
#X msg 78 -146 0;
#X floatatom 238 -108 5 0 0 0 - - -, f 5;
#X obj 238 -134 / 4;
#X obj 238 -243 t b b;
#X obj 36 -94 metro 150;
#X obj 36 -291 r start @hv_event;
#X obj 78 -229 r stop @hv_event;
#X obj 166 -60 s localPulse;
#X msg 227 -274 80;
#X obj 167 -27 r localPulse;
#X obj 342 33 + 1;
#X floatatom 340 72 5 0 0 0 - - -, f 5;
#X obj 297 55 % 16;
#X obj 1273 144 table seqNoteTab01 16 @hv_table;
#X obj 1273 161 table seqNoteTab02 16 @hv_table;
#X obj 1273 178 table seqNoteTab03 16 @hv_table;
#X obj 1273 195 table seqNoteTab04 16 @hv_table;
#X obj 1273 212 table seqNoteTab05 16 @hv_table;
#X obj 1273 229 table seqNoteTab06 16 @hv_table;
#X obj 1273 246 table seqNoteTab07 16 @hv_table;
#X obj 1273 263 table seqNoteTab08 16 @hv_table;
#X obj 1273 294 table seqVeloTab01 16 @hv_table;
#X obj 1273 311 table seqVeloTab02 16 @hv_table;
#X obj 1273 328 table seqVeloTab03 16 @hv_table;
#X obj 1273 345 table seqVeloTab04 16 @hv_table;
#X obj 1273 362 table seqVeloTab05 16 @hv_table;
#X obj 1273 379 table seqVeloTab06 16 @hv_table;
#X obj 1273 396 table seqVeloTab07 16 @hv_table;
#X obj 1273 413 table seqVeloTab08 16 @hv_table;
#X obj 237 508 pack 0 64 127;
#X text 1012 61 seqstep: set 1st;
#X text 964 41 notenumber: set 2nd;
#X text 951 21 notevelo: set 3rd;
#X obj 867 104 route 0 1 2 3 4 5 6 7;
#X obj 1047 87 pack 0 0 0 0;
#X text 917 1 voicenum: set last;
#X obj 907 141 tabwrite seqNoteTab01;
#X obj 867 158 tabwrite seqVeloTab01;
#X floatatom 1047 -29 5 0 0 0 - - -, f 5;
#X floatatom 1094 -29 5 0 0 0 - - -, f 5;
#X floatatom 1141 -29 5 0 0 0 - - -, f 5;
#X floatatom 1188 -29 5 0 0 0 - - -, f 5;
#X obj 923 201 tabwrite seqNoteTab02;
#X obj 883 218 tabwrite seqVeloTab02;
#X obj 943 261 tabwrite seqNoteTab03;
#X obj 903 278 tabwrite seqVeloTab03;
#X obj 961 321 tabwrite seqNoteTab04;
#X obj 921 338 tabwrite seqVeloTab04;
#X obj 979 381 tabwrite seqNoteTab05;
#X obj 939 398 tabwrite seqVeloTab05;
#X obj 998 441 tabwrite seqNoteTab06;
#X obj 958 458 tabwrite seqVeloTab06;
#X obj 1015 501 tabwrite seqNoteTab07;
#X obj 975 518 tabwrite seqVeloTab07;
#X obj 1033 561 tabwrite seqNoteTab08;
#X obj 993 578 tabwrite seqVeloTab08;
#X obj 184 205 tabread seqNoteTab01;
#X obj 297 33 f;
#X text 309 14 step counter;
#X obj 184 181 f;
#X obj 297 88 s stepNum;
#X obj 202 155 r stepNum;
#X obj 184 232 moses 27;
#X obj 282 342 + 1;
#X floatatom 280 381 5 0 0 0 - - -, f 5;
#X obj 237 342 f;
#X text 231 321 voice selector;
#X obj 269 300 s noteNum;
#X obj 1047 1 r seqVoiceNum @hv_param 0 127 0;
#X obj 1101 41 r seqNoteNum @hv_param 0 127 0;
#X obj 1128 61 r seqStepNum @hv_param 0 15 0;
#X floatatom 282 277 5 0 0 0 - - -, f 5;
#X obj -90 82 s \$1-setTab;
#X msg -90 59 set seqNoteTab01;
#X obj 223 181 r \$1-setTab;
#X obj 237 260 t b f;
#X obj 167 -5 t b b b b b b b b b;
#X obj -110 132 s \$1-setTab;
#X msg -110 109 set seqNoteTab02;
#X obj -130 182 s \$1-setTab;
#X obj -150 232 s \$1-setTab;
#X msg -130 159 set seqNoteTab03;
#X msg -150 209 set seqNoteTab04;
#X obj -170 282 s \$1-setTab;
#X obj -190 332 s \$1-setTab;
#X obj -210 382 s \$1-setTab;
#X obj -230 432 s \$1-setTab;
#X msg -170 259 set seqNoteTab05;
#X msg -190 309 set seqNoteTab06;
#X msg -210 359 set seqNoteTab07;
#X msg -230 409 set seqNoteTab08;
#X obj 237 397 s voiceNum;
#X obj 325 487 r lpfCutoff;
#X obj 281 467 r noteNum;
#X obj 237 447 r voiceNum;
#X obj 867 124 unpack f f f;
#X obj 883 184 unpack f f f;
#X obj 903 244 unpack f f f;
#X obj 921 304 unpack f f f;
#X obj 939 364 unpack f f f;
#X obj 958 424 unpack f f f;
#X obj 975 484 unpack f f f;
#X obj 993 544 unpack f f f;
#X obj 237 534 route 0 1 2 3 4 5 6 7 8 9 10 11 12 13 14 15 16 17 18
19 20 21 22 23 24 25 26 27 28 29 30 31, f 92;
#X obj 237 364 % 32;
#X obj 36 -55 bng 15 250 50 0 empty empty empty 17 7 0 10 -262144 -1
-1;
#X msg 36 -31 1;
#X obj 36 -4 s pulse @hv_param;
#X obj 1542 17 r clearSeq @hv_event;
#X msg 1770 88 const 0;
#X obj 1770 105 s seqNoteTab01;
#X obj 1542 63 t b b b b b b b b b b b b b b b b;
#X msg 1754 122 const 0;
#X obj 1754 139 s seqNoteTab02;
#X msg 1739 156 const 0;
#X obj 1739 173 s seqNoteTab03;
#X msg 1724 190 const 0;
#X obj 1724 207 s seqNoteTab04;
#X msg 1709 224 const 0;
#X msg 1694 258 const 0;
#X msg 1678 292 const 0;
#X msg 1662 326 const 0;
#X obj 1709 241 s seqNoteTab05;
#X obj 1694 275 s seqNoteTab06;
#X obj 1678 309 s seqNoteTab07;
#X obj 1662 343 s seqNoteTab08;
#X msg 1649 372 const 0;
#X msg 1633 406 const 0;
#X msg 1618 440 const 0;
#X msg 1603 474 const 0;
#X msg 1588 508 const 0;
#X msg 1573 542 const 0;
#X msg 1557 576 const 0;
#X msg 1541 610 const 0;
#X obj 1649 389 s seqVeloTab01;
#X obj 1633 423 s seqVeloTab02;
#X obj 1618 457 s seqVeloTab03;
#X obj 1603 491 s seqVeloTab04;
#X obj 1588 525 s seqVeloTab05;
#X obj 1573 559 s seqVeloTab06;
#X obj 1557 593 s seqVeloTab07;
#X obj 1541 627 s seqVeloTab08;
#X obj 184 259 bng 15 250 50 0 empty empty empty 17 7 0 10 -262144
-1 -1;
#X obj 1542 40 bng 15 250 50 0 empty empty empty 17 7 0 10 -262144
-1 -1;
#X obj 1074 21 r seqNoteVelo @hv_param 0 22000 0;
#X text 1318 20 velocity is filterCutoff;
#X obj 184 128 r nNum;
#X obj -168 51 s nNum;
#X obj -208 101 s nNum;
#X obj -122 34 t b b b b;
#X obj -162 84 t b b b b;
#X obj -187 134 t b b b b;
#X obj -208 184 t b b b b;
#X obj -225 234 t b b b b;
#X obj -247 284 t b b b b;
#X obj -267 334 t b b b b;
#X obj -292 384 t b b b b;
#X obj -233 151 s nNum;
#X obj -254 201 s nNum;
#X obj -271 251 s nNum;
#X obj -293 301 s nNum;
#X obj -313 351 s nNum;
#X obj -338 401 s nNum;
#X obj 39 59 s nCut;
#X obj 12 109 s nCut;
#X obj -8 159 s nCut;
#X obj -24 209 s nCut;
#X obj -44 259 s nCut;
#X obj -64 309 s nCut;
#X obj -84 359 s nCut;
#X obj -104 409 s nCut;
#X msg 90 59 set seqVeloTab01;
#X msg 60 109 set seqVeloTab02;
#X msg 40 159 set seqVeloTab03;
#X msg 30 209 set seqVeloTab04;
#X msg 10 259 set seqVeloTab05;
#X msg -10 309 set seqVeloTab06;
#X msg -20 359 set seqVeloTab07;
#X msg -50 409 set seqVeloTab08;
#X obj 90 82 s \$2-setTab;
#X obj 60 132 s \$2-setTab;
#X obj 40 182 s \$2-setTab;
#X obj 30 232 s \$2-setTab;
#X obj 10 281 s \$2-setTab;
#X obj -10 332 s \$2-setTab;
#X obj -20 382 s \$2-setTab;
#X obj -50 432 s \$2-setTab;
#X obj 344 181 f;
#X obj 362 155 r stepNum;
#X obj 344 128 r nCut;
#X obj 383 181 r \$2-setTab;
#X obj 344 205 tabread seqVeloTab01;
#X obj 498 222 s lpfCutoff;
#X text 246 239 27 is the lowest midi note number we support;
#X obj 255 588 AccoSamplerVoice;
#X obj 274 615 AccoSamplerVoice;
#X obj 293 642 AccoSamplerVoice;
#X obj 311 669 AccoSamplerVoice;
#X obj 329 696 AccoSamplerVoice;
#X obj 348 723 AccoSamplerVoice;
#X obj 366 752 AccoSamplerVoice;
#X obj 386 561 AccoSamplerVoice;
#X obj 406 588 AccoSamplerVoice;
#X obj 425 615 AccoSamplerVoice;
#X obj 444 642 AccoSamplerVoice;
#X obj 462 669 AccoSamplerVoice;
#X obj 480 696 AccoSamplerVoice;
#X obj 499 723 AccoSamplerVoice;
#X obj 517 752 AccoSamplerVoice;
#X obj 537 561 AccoSamplerVoice;
#X obj 555 588 AccoSamplerVoice;
#X obj 574 615 AccoSamplerVoice;
#X obj 593 642 AccoSamplerVoice;
#X obj 611 669 AccoSamplerVoice;
#X obj 629 696 AccoSamplerVoice;
#X obj 648 723 AccoSamplerVoice;
#X obj 666 752 AccoSamplerVoice;
#X obj 686 561 AccoSamplerVoice;
#X obj 706 588 AccoSamplerVoice;
#X obj 725 615 AccoSamplerVoice;
#X obj 744 642 AccoSamplerVoice;
#X obj 762 669 AccoSamplerVoice;
#X obj 780 696 AccoSamplerVoice;
#X obj 799 723 AccoSamplerVoice;
#X obj 817 752 AccoSamplerVoice;
#X obj 558 198 print \$2;
#X obj 257 133 print \$1;
#X floatatom 286 158 5 0 0 0 - - -, f 5;
#X floatatom 453 159 5 0 0 0 - - -, f 5;
#X obj 227 -307 loadbang;
#X obj 108 -77 del 80;
#X text 162 -78 80ms delay to allow seq tables to be filled;
#X obj 294 -306 r bpm @hv_param 40 180 100;
#X connect 28 0 29 0;
#X connect 29 0 30 0;
#X connect 29 0 30 1;
#X connect 31 0 34 1;
#X connect 31 0 39 0;
#X connect 32 0 38 0;
#X connect 33 0 34 0;
#X connect 34 0 32 0;
#X connect 35 0 40 0;
#X connect 36 0 40 0;
#X connect 37 0 40 1;
#X connect 38 0 37 0;
#X connect 39 0 33 0;
#X connect 40 0 141 0;
#X connect 40 0 266 0;
#X connect 41 0 35 0;
#X connect 42 0 36 0;
#X connect 44 0 31 0;
#X connect 45 0 112 0;
#X connect 46 0 93 1;
#X connect 48 0 47 0;
#X connect 48 0 96 0;
#X connect 65 0 139 0;
#X connect 69 0 131 0;
#X connect 69 1 132 0;
#X connect 69 2 133 0;
#X connect 69 3 134 0;
#X connect 69 4 135 0;
#X connect 69 5 136 0;
#X connect 69 6 137 0;
#X connect 69 7 138 0;
#X connect 70 0 69 0;
#X connect 74 0 70 0;
#X connect 75 0 70 1;
#X connect 76 0 70 2;
#X connect 77 0 70 3;
#X connect 92 0 98 0;
#X connect 93 0 46 0;
#X connect 93 0 48 0;
#X connect 95 0 92 0;
#X connect 97 0 95 1;
#X connect 97 0 263 0;
#X connect 98 0 178 0;
#X connect 98 1 111 0;
#X connect 99 0 101 1;
#X connect 101 0 99 0;
#X connect 101 0 140 0;
#X connect 104 0 70 0;
#X connect 105 0 70 2;
#X connect 106 0 70 3;
#X connect 109 0 108 0;
#X connect 110 0 92 0;
#X connect 110 0 262 0;
#X connect 111 0 101 0;
#X connect 111 1 103 0;
#X connect 111 1 107 0;
#X connect 112 0 192 0;
#X connect 112 1 191 0;
#X connect 112 2 190 0;
#X connect 112 3 189 0;
#X connect 112 4 188 0;
#X connect 112 5 187 0;
#X connect 112 6 186 0;
#X connect 112 7 185 0;
#X connect 112 8 93 0;
#X connect 114 0 113 0;
#X connect 117 0 115 0;
#X connect 118 0 116 0;
#X connect 123 0 119 0;
#X connect 124 0 120 0;
#X connect 125 0 121 0;
#X connect 126 0 122 0;
#X connect 128 0 65 2;
#X connect 129 0 65 1;
#X connect 130 0 65 0;
#X connect 131 0 73 0;
#X connect 131 1 72 0;
#X connect 131 2 72 1;
#X connect 131 2 73 1;
#X connect 132 0 79 0;
#X connect 132 1 78 0;
#X connect 132 2 78 1;
#X connect 132 2 79 1;
#X connect 133 0 81 0;
#X connect 133 1 80 0;
#X connect 133 2 80 1;
#X connect 133 2 81 1;
#X connect 134 0 83 0;
#X connect 134 1 82 0;
#X connect 134 2 82 1;
#X connect 134 2 83 1;
#X connect 135 0 85 0;
#X connect 135 1 84 0;
#X connect 135 2 84 1;
#X connect 135 2 85 1;
#X connect 136 0 87 0;
#X connect 136 1 86 0;
#X connect 136 2 86 1;
#X connect 136 2 87 1;
#X connect 137 0 89 0;
#X connect 137 1 88 0;
#X connect 137 2 88 1;
#X connect 137 2 89 1;
#X connect 138 0 91 0;
#X connect 138 1 90 0;
#X connect 138 2 90 1;
#X connect 138 2 91 1;
#X connect 139 0 28 0;
#X connect 139 1 230 0;
#X connect 139 2 231 0;
#X connect 139 3 232 0;
#X connect 139 4 233 0;
#X connect 139 5 234 0;
#X connect 139 6 235 0;
#X connect 139 7 236 0;
#X connect 139 8 237 0;
#X connect 139 9 238 0;
#X connect 139 10 239 0;
#X connect 139 11 240 0;
#X connect 139 12 241 0;
#X connect 139 13 242 0;
#X connect 139 14 243 0;
#X connect 139 15 244 0;
#X connect 139 16 245 0;
#X connect 139 17 246 0;
#X connect 139 18 247 0;
#X connect 139 19 248 0;
#X connect 139 20 249 0;
#X connect 139 21 250 0;
#X connect 139 22 251 0;
#X connect 139 23 252 0;
#X connect 139 24 253 0;
#X connect 139 25 254 0;
#X connect 139 26 255 0;
#X connect 139 27 256 0;
#X connect 139 28 257 0;
#X connect 139 29 258 0;
#X connect 139 30 259 0;
#X connect 139 31 260 0;
#X connect 140 0 100 0;
#X connect 140 0 127 0;
#X connect 141 0 142 0;
#X connect 142 0 143 0;
#X connect 144 0 179 0;
#X connect 145 0 146 0;
#X connect 147 0 169 0;
#X connect 147 1 168 0;
#X connect 147 2 167 0;
#X connect 147 3 166 0;
#X connect 147 4 165 0;
#X connect 147 5 164 0;
#X connect 147 6 163 0;
#X connect 147 7 162 0;
#X connect 147 8 157 0;
#X connect 147 9 156 0;
#X connect 147 10 155 0;
#X connect 147 11 154 0;
#X connect 147 12 152 0;
#X connect 147 13 150 0;
#X connect 147 14 148 0;
#X connect 147 15 145 0;
#X connect 148 0 149 0;
#X connect 150 0 151 0;
#X connect 152 0 153 0;
#X connect 154 0 158 0;
#X connect 155 0 159 0;
#X connect 156 0 160 0;
#X connect 157 0 161 0;
#X connect 162 0 170 0;
#X connect 163 0 171 0;
#X connect 164 0 172 0;
#X connect 165 0 173 0;
#X connect 166 0 174 0;
#X connect 167 0 175 0;
#X connect 168 0 176 0;
#X connect 169 0 177 0;
#X connect 179 0 147 0;
#X connect 180 0 70 1;
#X connect 182 0 95 0;
#X connect 185 0 183 0;
#X connect 185 1 109 0;
#X connect 185 2 199 0;
#X connect 185 3 207 0;
#X connect 186 0 184 0;
#X connect 186 1 114 0;
#X connect 186 2 200 0;
#X connect 186 3 208 0;
#X connect 187 0 193 0;
#X connect 187 1 117 0;
#X connect 187 2 201 0;
#X connect 187 3 209 0;
#X connect 188 0 194 0;
#X connect 188 1 118 0;
#X connect 188 2 202 0;
#X connect 188 3 210 0;
#X connect 189 0 195 0;
#X connect 189 1 123 0;
#X connect 189 2 203 0;
#X connect 189 3 211 0;
#X connect 190 0 196 0;
#X connect 190 1 124 0;
#X connect 190 2 204 0;
#X connect 190 3 212 0;
#X connect 191 0 197 0;
#X connect 191 1 125 0;
#X connect 191 2 205 0;
#X connect 191 3 213 0;
#X connect 192 0 198 0;
#X connect 192 1 126 0;
#X connect 192 2 206 0;
#X connect 192 3 214 0;
#X connect 207 0 215 0;
#X connect 208 0 216 0;
#X connect 209 0 217 0;
#X connect 210 0 218 0;
#X connect 211 0 219 0;
#X connect 212 0 220 0;
#X connect 213 0 221 0;
#X connect 214 0 222 0;
#X connect 223 0 227 0;
#X connect 224 0 223 1;
#X connect 224 0 264 0;
#X connect 225 0 223 0;
#X connect 226 0 227 0;
#X connect 226 0 261 0;
#X connect 227 0 228 0;
#X connect 230 0 29 0;
#X connect 231 0 29 0;
#X connect 232 0 29 0;
#X connect 233 0 29 0;
#X connect 234 0 29 0;
#X connect 235 0 29 0;
#X connect 236 0 29 0;
#X connect 237 0 29 0;
#X connect 238 0 29 0;
#X connect 239 0 29 0;
#X connect 240 0 29 0;
#X connect 241 0 29 0;
#X connect 242 0 29 0;
#X connect 243 0 29 0;
#X connect 244 0 29 0;
#X connect 245 0 29 0;
#X connect 246 0 29 0;
#X connect 247 0 29 0;
#X connect 248 0 29 0;
#X connect 249 0 29 0;
#X connect 250 0 29 0;
#X connect 251 0 29 0;
#X connect 252 0 29 0;
#X connect 253 0 29 0;
#X connect 254 0 29 0;
#X connect 255 0 29 0;
#X connect 256 0 29 0;
#X connect 257 0 29 0;
#X connect 258 0 29 0;
#X connect 259 0 29 0;
#X connect 260 0 29 0;
#X connect 265 0 44 0;
#X connect 266 0 43 0;
#X connect 268 0 31 0;
