#N canvas 76 95 1920 997 10;
#X obj 222 313 line~;
#X obj 220 380 *~ 0.5;
#X obj 996 67 moses 108;
#X msg 222 254 0 \, 88199 1999;
#X obj 222 229 select 0 1 2;
#X msg 249 275 0 \, 88199 1887;
#X msg 276 296 0 \, 88199 1781;
#X obj 1016 121 - 108;
#X obj 1016 94 t f b;
#X msg 1048 181 set tab108;
#X text 575 22 Note Number Cascade;
#X obj 926 111 t f b;
#X obj 906 84 moses 105;
#X obj 926 138 - 105;
#X msg 958 198 set tab105;
#X obj 836 128 t f b;
#X obj 746 145 t f b;
#X obj 816 101 moses 102;
#X obj 836 155 - 102;
#X obj 726 118 moses 99;
#X obj 746 172 - 99;
#X msg 778 232 set tab099;
#X text 15 13 Received from the Note Number Cascade;
#X obj 656 162 t f b;
#X obj 566 179 t f b;
#X obj 476 196 t f b;
#X obj 1016 303 t f b;
#X obj 636 135 moses 96;
#X obj 656 189 - 96;
#X msg 688 249 set tab096;
#X obj 546 152 moses 93;
#X obj 566 206 - 93;
#X msg 598 266 set tab093;
#X obj 456 169 moses 90;
#X obj 476 223 - 90;
#X msg 508 283 set tab090;
#X obj 996 276 moses 87;
#X obj 1016 330 - 87;
#X msg 1048 390 set tab087;
#X obj 926 320 t f b;
#X obj 836 337 t f b;
#X obj 746 354 t f b;
#X obj 656 371 t f b;
#X obj 566 388 t f b;
#X obj 476 405 t f b;
#X obj 1016 512 t f b;
#X obj 926 529 t f b;
#X obj 906 293 moses 84;
#X obj 926 347 - 84;
#X msg 958 407 set tab084;
#X obj 816 310 moses 81;
#X obj 836 364 - 81;
#X msg 868 424 set tab081;
#X obj 726 327 moses 78;
#X obj 746 381 - 78;
#X msg 778 441 set tab078;
#X obj 635 344 moses 75;
#X obj 656 398 - 75;
#X msg 688 458 set tab075;
#X obj 546 361 moses 72;
#X obj 566 415 - 72;
#X msg 598 475 set tab072;
#X obj 456 378 moses 69;
#X obj 476 432 - 69;
#X msg 508 492 set tab069;
#X obj 996 485 moses 66;
#X obj 1016 539 - 66;
#X msg 1048 599 set tab066;
#X obj 906 502 moses 63;
#X obj 926 556 - 63;
#X msg 958 616 set tab063;
#X obj 836 546 t f b;
#X obj 746 563 t f b;
#X obj 656 580 t f b;
#X obj 566 597 t f b;
#X obj 476 614 t f b;
#X obj 816 519 moses 60;
#X obj 836 573 - 60;
#X msg 868 633 set tab060;
#X obj 726 536 moses 57;
#X obj 746 590 - 57;
#X msg 778 650 set tab057;
#X obj 635 553 moses 54;
#X obj 656 607 - 54;
#X msg 688 667 set tab054;
#X obj 546 570 moses 51;
#X obj 566 624 - 51;
#X msg 598 684 set tab051;
#X obj 456 587 moses 48;
#X obj 476 641 - 48;
#X msg 508 701 set tab048;
#X obj 1016 722 t f b;
#X obj 926 739 t f b;
#X obj 836 756 t f b;
#X obj 746 773 t f b;
#X obj 656 790 t f b;
#X obj 566 807 t f b;
#X obj 476 824 t f b;
#X obj 996 695 moses 45;
#X obj 1016 749 - 45;
#X msg 1048 809 set tab045;
#X obj 906 712 moses 42;
#X obj 926 766 - 42;
#X msg 958 826 set tab042;
#X obj 816 729 moses 39;
#X obj 836 783 - 39;
#X msg 868 843 set tab039;
#X obj 726 746 moses 36;
#X obj 746 800 - 36;
#X msg 778 859 set tab036;
#X obj 635 763 moses 33;
#X obj 656 816 - 33;
#X msg 688 877 set tab033;
#X obj 546 780 moses 30;
#X obj 566 834 - 30;
#X msg 598 894 set tab030;
#X obj 456 797 moses 27;
#X obj 476 851 - 27;
#X msg 508 911 set tab027;
#X obj 201 490 outlet~;
#X obj 996 12 inlet;
#X obj 221 352 tabread4~ tab108;
#X obj 139 44 r \$0-pitch;
#X obj 234 335 r \$0-setTab;
#X obj 1016 158 s \$0-pitch;
#X obj 1048 208 s \$0-setTab;
#X obj 926 175 s \$0-pitch;
#X obj 958 225 s \$0-setTab;
#X obj 836 192 s \$0-pitch;
#X msg 868 215 set tab102;
#X obj 868 242 s \$0-setTab;
#X obj 746 209 s \$0-pitch;
#X obj 778 259 s \$0-setTab;
#X obj 656 226 s \$0-pitch;
#X obj 688 276 s \$0-setTab;
#X obj 566 243 s \$0-pitch;
#X obj 598 293 s \$0-setTab;
#X obj 476 260 s \$0-pitch;
#X obj 508 310 s \$0-setTab;
#X obj 1016 367 s \$0-pitch;
#X obj 1048 417 s \$0-setTab;
#X obj 926 384 s \$0-pitch;
#X obj 958 433 s \$0-setTab;
#X obj 836 401 s \$0-pitch;
#X obj 868 451 s \$0-setTab;
#X obj 746 418 s \$0-pitch;
#X obj 778 467 s \$0-setTab;
#X obj 656 435 s \$0-pitch;
#X obj 688 485 s \$0-setTab;
#X obj 566 452 s \$0-pitch;
#X obj 598 502 s \$0-setTab;
#X obj 476 469 s \$0-pitch;
#X obj 508 519 s \$0-setTab;
#X obj 1016 576 s \$0-pitch;
#X obj 1048 626 s \$0-setTab;
#X obj 926 593 s \$0-pitch;
#X obj 958 643 s \$0-setTab;
#X obj 836 610 s \$0-pitch;
#X obj 868 660 s \$0-setTab;
#X obj 746 627 s \$0-pitch;
#X obj 777 677 s \$0-setTab;
#X obj 656 644 s \$0-pitch;
#X obj 688 694 s \$0-setTab;
#X obj 566 661 s \$0-pitch;
#X obj 598 710 s \$0-setTab;
#X obj 476 678 s \$0-pitch;
#X obj 508 728 s \$0-setTab;
#X obj 1016 786 s \$0-pitch;
#X obj 1048 836 s \$0-setTab;
#X obj 926 803 s \$0-pitch;
#X obj 958 853 s \$0-setTab;
#X obj 836 820 s \$0-pitch;
#X obj 868 870 s \$0-setTab;
#X obj 746 837 s \$0-pitch;
#X obj 778 887 s \$0-setTab;
#X obj 656 854 s \$0-pitch;
#X obj 688 904 s \$0-setTab;
#X obj 566 871 s \$0-pitch;
#X obj 476 888 s \$0-pitch;
#X obj 508 938 s \$0-setTab;
#X msg 199 110 0 40;
#X obj 202 132 line~;
#X obj 202 410 *~;
#X text 246 110 Adding a 40ms fade to prevent clicks;
#X obj 179 284 del 40;
#X obj 139 141 del 40;
#X obj 139 69 t b f b b;
#X obj 141 212 *;
#X msg 139 162 1;
#X obj 160 393 line~;
#X msg 160 368 1 0;
#X obj 598 921 s \$0-setTab;
#X text 574 37 28 copies!? Sadly \, Heavy won't allow string concatenation
\, so we can't set the table name programmatically \; ^(;
#X obj 996 37 unpack f f;
#X obj 202 464 lop~;
#X obj 1079 79 line 0 1;
#X msg 1079 54 \$1 40;
#X obj 1079 106 t f f;
#X obj 1168 123 / 20000;
#X obj 1168 148 * 0.5;
#X text 1165 102 derive the volume from the 0-20 \, 0 lpf value;
#X text 1199 231 Copyright (c) Jean Marais / MoShang 2018 Licensed
under GPLv3. This program is free software: you can redistribute it
and/or modify it under the terms of the GNU General Public License
as published by the Free Software Foundation \, either version 3 of
the License \, or (at your option) any later version. This program
is distributed in the hope that it will be useful \, but WITHOUT ANY
WARRANTY \; without even the implied warranty of MERCHANTABILITY or
FITNESS FOR A PARTICULAR PURPOSE. See the GNU General Public License
for more details. You should have received a copy of the GNU General
Public License along with this program. If not \, see <http://www.gnu.org/licenses/>.
, f 71;
#X connect 0 0 121 0;
#X connect 1 0 182 1;
#X connect 2 0 12 0;
#X connect 2 1 8 0;
#X connect 3 0 0 0;
#X connect 4 0 3 0;
#X connect 4 1 5 0;
#X connect 4 2 6 0;
#X connect 5 0 0 0;
#X connect 6 0 0 0;
#X connect 7 0 124 0;
#X connect 8 0 7 0;
#X connect 8 1 9 0;
#X connect 9 0 125 0;
#X connect 11 0 13 0;
#X connect 11 1 14 0;
#X connect 12 0 17 0;
#X connect 12 1 11 0;
#X connect 13 0 126 0;
#X connect 14 0 127 0;
#X connect 15 0 18 0;
#X connect 15 1 129 0;
#X connect 16 0 20 0;
#X connect 16 1 21 0;
#X connect 17 0 19 0;
#X connect 17 1 15 0;
#X connect 18 0 128 0;
#X connect 19 0 27 0;
#X connect 19 1 16 0;
#X connect 20 0 131 0;
#X connect 21 0 132 0;
#X connect 23 0 28 0;
#X connect 23 1 29 0;
#X connect 24 0 31 0;
#X connect 24 1 32 0;
#X connect 25 0 34 0;
#X connect 25 1 35 0;
#X connect 26 0 37 0;
#X connect 26 1 38 0;
#X connect 27 0 30 0;
#X connect 27 1 23 0;
#X connect 28 0 133 0;
#X connect 29 0 134 0;
#X connect 30 0 33 0;
#X connect 30 1 24 0;
#X connect 31 0 135 0;
#X connect 32 0 136 0;
#X connect 33 0 36 0;
#X connect 33 1 25 0;
#X connect 34 0 137 0;
#X connect 35 0 138 0;
#X connect 36 0 47 0;
#X connect 36 1 26 0;
#X connect 37 0 139 0;
#X connect 38 0 140 0;
#X connect 39 0 48 0;
#X connect 39 1 49 0;
#X connect 40 0 51 0;
#X connect 40 1 52 0;
#X connect 41 0 54 0;
#X connect 41 1 55 0;
#X connect 42 0 57 0;
#X connect 42 1 58 0;
#X connect 43 0 60 0;
#X connect 43 1 61 0;
#X connect 44 0 63 0;
#X connect 44 1 64 0;
#X connect 45 0 66 0;
#X connect 45 1 67 0;
#X connect 46 0 69 0;
#X connect 46 1 70 0;
#X connect 47 0 50 0;
#X connect 47 1 39 0;
#X connect 48 0 141 0;
#X connect 49 0 142 0;
#X connect 50 0 53 0;
#X connect 50 1 40 0;
#X connect 51 0 143 0;
#X connect 52 0 144 0;
#X connect 53 0 56 0;
#X connect 53 1 41 0;
#X connect 54 0 145 0;
#X connect 55 0 146 0;
#X connect 56 0 59 0;
#X connect 56 1 42 0;
#X connect 57 0 147 0;
#X connect 58 0 148 0;
#X connect 59 0 62 0;
#X connect 59 1 43 0;
#X connect 60 0 149 0;
#X connect 61 0 150 0;
#X connect 62 0 65 0;
#X connect 62 1 44 0;
#X connect 63 0 151 0;
#X connect 64 0 152 0;
#X connect 65 0 68 0;
#X connect 65 1 45 0;
#X connect 66 0 153 0;
#X connect 67 0 154 0;
#X connect 68 0 76 0;
#X connect 68 1 46 0;
#X connect 69 0 155 0;
#X connect 70 0 156 0;
#X connect 71 0 77 0;
#X connect 71 1 78 0;
#X connect 72 0 80 0;
#X connect 72 1 81 0;
#X connect 73 0 83 0;
#X connect 73 1 84 0;
#X connect 74 0 86 0;
#X connect 74 1 87 0;
#X connect 75 0 89 0;
#X connect 75 1 90 0;
#X connect 76 0 79 0;
#X connect 76 1 71 0;
#X connect 77 0 157 0;
#X connect 78 0 158 0;
#X connect 79 0 82 0;
#X connect 79 1 72 0;
#X connect 80 0 159 0;
#X connect 81 0 160 0;
#X connect 82 0 85 0;
#X connect 82 1 73 0;
#X connect 83 0 161 0;
#X connect 84 0 162 0;
#X connect 85 0 88 0;
#X connect 85 1 74 0;
#X connect 86 0 163 0;
#X connect 87 0 164 0;
#X connect 88 0 98 0;
#X connect 88 1 75 0;
#X connect 89 0 165 0;
#X connect 90 0 166 0;
#X connect 91 0 99 0;
#X connect 91 1 100 0;
#X connect 92 0 102 0;
#X connect 92 1 103 0;
#X connect 93 0 105 0;
#X connect 93 1 106 0;
#X connect 94 0 108 0;
#X connect 94 1 109 0;
#X connect 95 0 111 0;
#X connect 95 1 112 0;
#X connect 96 0 114 0;
#X connect 96 1 115 0;
#X connect 97 0 117 0;
#X connect 97 1 118 0;
#X connect 98 0 101 0;
#X connect 98 1 91 0;
#X connect 99 0 167 0;
#X connect 100 0 168 0;
#X connect 101 0 104 0;
#X connect 101 1 92 0;
#X connect 102 0 169 0;
#X connect 103 0 170 0;
#X connect 104 0 107 0;
#X connect 104 1 93 0;
#X connect 105 0 171 0;
#X connect 106 0 172 0;
#X connect 107 0 110 0;
#X connect 107 1 94 0;
#X connect 108 0 173 0;
#X connect 109 0 174 0;
#X connect 110 0 113 0;
#X connect 110 1 95 0;
#X connect 111 0 175 0;
#X connect 112 0 176 0;
#X connect 113 0 116 0;
#X connect 113 1 96 0;
#X connect 114 0 177 0;
#X connect 115 0 191 0;
#X connect 116 1 97 0;
#X connect 117 0 178 0;
#X connect 118 0 179 0;
#X connect 120 0 193 0;
#X connect 121 0 1 0;
#X connect 122 0 186 0;
#X connect 123 0 121 0;
#X connect 129 0 130 0;
#X connect 180 0 181 0;
#X connect 181 0 182 0;
#X connect 182 0 194 0;
#X connect 184 0 190 0;
#X connect 185 0 188 0;
#X connect 186 0 185 0;
#X connect 186 1 187 1;
#X connect 186 2 184 0;
#X connect 186 3 180 0;
#X connect 187 0 4 0;
#X connect 188 0 187 0;
#X connect 189 0 182 0;
#X connect 190 0 189 0;
#X connect 193 0 2 0;
#X connect 193 1 196 0;
#X connect 194 0 119 0;
#X connect 195 0 197 0;
#X connect 196 0 195 0;
#X connect 197 0 194 1;
#X connect 197 1 198 0;
#X connect 198 0 199 0;
#X connect 199 0 1 1;
